<svg xmlns="http://www.w3.org/2000/svg" version="1.0" width="223.000000pt" height="110.000000pt" viewBox="0 0 223.000000 110.000000" preserveAspectRatio="xMidYMid meet">
<metadata fill="#8b5e35">
Created by potrace 1.16, written by Peter Selinger 2001-2019
</metadata>
<g transform="translate(0.000000,110.000000) scale(0.100000,-0.100000)" fill="#8b5e35" stroke="none">
<path d="M804 866 c-59 -19 -98 -52 -130 -110 -25 -44 -29 -62 -28 -131 0 -56 5 -90 17 -112 9 -18 13 -34 8 -38 -13 -7 -138 11 -187 29 -138 48 -266 159 -325 281 -27 56 -34 65 -37 46 -7 -43 65 -170 137 -241 107 -106 214 -150 364 -150 76 0 79 -1 105 -32 41 -49 133 -103 224 -131 330 -104 601 -60 801 132 85 82 88 112 3 34 -83 -75 -155 -118 -264 -156 -81 -29 -97 -31 -232 -31 -162 -1 -205 8 -325 70 -71 36 -175 109 -175 122 0 4 26 15 57 25 121 39 231 128 255 209 38 129 -113 232 -268 184z m163 -36 c58 -35 79 -110 49 -169 -32 -61 -140 -137 -233 -164 -61 -18 -67 -14 -89 59 -18 60 -18 88 1 150 16 54 62 109 110 130 46 20 125 17 162 -6z" fill="#8b5e35"/>
<path d="M1810 585 c-8 -2 -32 -6 -52 -10 -28 -4 -38 -11 -38 -25 0 -15 11 -20 64 -25 l64 -7 -14 -52 c-25 -94 -14 -146 20 -93 25 38 78 187 72 202 -5 14 -70 19 -116 10z" fill="#8b5e35"/>
</g>
</svg>